<?xml version="1.0" encoding="utf-8"?>
<!-- Generator: Adobe Illustrator 21.0.2, SVG Export Plug-In . SVG Version: 6.00 Build 0)  -->
<svg version="1.1" id="Livello_1" xmlns="http://www.w3.org/2000/svg" xmlns:xlink="http://www.w3.org/1999/xlink" x="0px" y="0px"
	 viewBox="0 0 918.1 163.5" style="enable-background:new 0 0 918.1 163.5;" xml:space="preserve">
<style type="text/css">
	.st0{fill:#FFFFFF;}
	.st1{opacity:0.8;fill:#FFFFFF;enable-background:new    ;}
</style>
<path class="st0" d="M111.6,2H88v83.7L38.3,2H24.9c-7,0-12.6,6.1-12.6,13.1v108.8h24.6V40.2l49.7,83.7h25V2z"/>
<path class="st1" d="M186.5,2h-23.6v83.7L113.2,2H99.8c-7,0-12.6,6.1-12.6,13.1v108.8h24.6V40.2l49.7,83.7h25V2z"/>
<path class="st0" d="M249.1,0c14.2,0,26.5,3.6,36.8,10.8c9.3,7.5,14.5,18.1,15.4,31.9h-15.4c-4.5,0-8.1-2.2-10.9-6.3
	c-4.8-9.9-13.3-14.7-25.1-14.7c-21,0-31.7,13.3-31.9,40c-0.2,26.7,10.8,41.1,33.2,42.7c16.9,0,26.7-11.3,29.4-26h-14.7
	c-7,0-12.6-5.6-12.6-12.6v-7.7H303v65.8h-6.3c-5.9,0-11.7-3.9-12.2-9.5l-1.1-5.9c-8.6,11.1-17.4,17.2-35,17.2
	c-35,0-56.1-27.1-56.1-62.8C191.8,26.9,213.1-1.4,249.1,0z"/>
<path class="st0" d="M390.3,2h12.4v99.5h59.5v22.4h-84.5V15.1C377.8,8.1,383.3,2,390.3,2z"/>
<path class="st0" d="M551.1,76.9c0,32.6-14.5,49.1-43.2,49.1c-28.7,0-43-16.5-43-49.1c0-33,14.3-49.3,43-49.3
	C536.6,27.6,551.1,43.9,551.1,76.9z M489.1,76.9c0.2,18.5,6.5,27.8,18.6,27.8c12.2,0,18.3-9.7,18.5-28.5c0-18.5-6.1-27.6-18.3-27.6
	C495.4,48.6,489.1,58.1,489.1,76.9z"/>
<path class="st0" d="M556.5,76.6c0-31.6,14.7-47.3,44.1-47.9c29.6-0.2,44.5,13.8,44.5,42.3v56.1c0,23.8-15.1,35.9-45.4,36.4
	c-21.5,0-35.1-10-40.7-30.1h26.4c1.6,6.8,7.2,10,17,10c12.6,0,19-7.4,19-22.1c0,0,0,0.2,0-9.7c-6.1,9.3-15.2,14-27.1,14
	C569,125.7,556.5,109.2,556.5,76.6z M621.4,77.3c0.2-19.2-6.5-28.7-20.1-28.7S581,58.1,581,77.3c0.5,18.3,7,27.4,19.9,27.4
	C613.9,104.7,620.7,95.6,621.4,77.3z"/>
<path class="st0" d="M650.8,76.6c0-31.6,14.7-47.3,44.1-47.9c29.6-0.2,44.5,13.8,44.5,42.3v56.1c0,23.8-15.1,35.9-45.4,36.4
	c-21.5,0-35.1-10-40.7-30.1h26.4c1.6,6.8,7.2,10,17,10c12.6,0,19-7.4,19-22.1c0,0,0,0.2,0-9.7c-6.1,9.3-15.2,14-27.1,14
	C663.4,125.7,650.8,109.2,650.8,76.6z M715.7,77.3c0.2-19.2-6.5-28.7-20.1-28.7s-20.3,9.5-20.3,28.7c0.5,18.3,7,27.4,19.9,27.4
	C708.2,104.7,715,95.6,715.7,77.3z"/>
<path class="st0" d="M787.4,126.1c-28.7-0.9-43-17.6-43-49.8s14.5-48.4,43.4-48.6c30.1,0,44.3,18.5,42.5,55.6H769
	c0.9,14.5,7.2,21.9,18.8,21.9c5.6,0,10.8-2.3,15.4-6.8c2.2-2.3,4.8-3.4,8.1-3.4h17.6C823.6,114.9,810.7,126.1,787.4,126.1z
	 M769.3,66.2H805c-1.4-12.6-7.4-19-17.6-19C777.2,47.2,771.1,53.6,769.3,66.2z"/>
<path class="st0" d="M835.9,75c0.7-30.7,17-45.9,48.8-45.9h3.4v24.7H880c-13.3,0-19.9,7-19.9,20.8v49.3h-24.2L835.9,75L835.9,75z"/>
</svg>
